<svg version="1.1" id="Layer_1" xmlns="http://www.w3.org/2000/svg" xmlns:xlink="http://www.w3.org/1999/xlink" x="0px" y="0px"
	 width="100%" viewBox="0 0 496 496" enable-background="new 0 0 496 496" xml:space="preserve">
<path fill="#000000" opacity="1.000000" stroke="none" 
	d="
M1.000000,230.468567 
	C1.258606,228.540421 1.617668,227.090179 1.754594,225.619278 
	C2.027180,222.691086 2.677660,220.450165 6.487170,220.894379 
	C10.083452,221.313736 12.065748,222.788452 11.227896,226.617249 
	C10.011946,232.173874 10.393824,237.815521 10.189281,243.423401 
	C9.884905,251.768372 9.933539,251.770142 1.331228,251.922119 
	C1.000000,244.979050 1.000000,237.958099 1.000000,230.468567 
z"/>
<path fill="#000000" opacity="1.000000" stroke="none" 
	d="
M250.531433,1.000000 
	C251.107803,2.476215 251.184402,3.955513 251.329880,5.428008 
	C251.639725,8.564684 250.275803,9.879130 247.097412,9.976355 
	C240.176056,10.188072 233.239243,10.153572 226.352859,11.185013 
	C223.483261,11.614820 220.931992,11.661892 220.535751,7.331689 
	C220.160385,3.229485 221.903641,2.001693 225.375534,1.715471 
	C226.357239,1.634539 227.329681,1.440963 228.653183,1.149526 
	C236.020950,1.000000 243.041901,1.000000 250.531433,1.000000 
z"/>
<path fill="#000000" opacity="1.000000" stroke="none" 
	d="
M200.468567,497.000000 
	C198.625534,496.465637 197.291077,495.660034 195.868729,495.450256 
	C192.312439,494.925720 190.650253,493.621735 191.588974,489.563171 
	C192.552399,485.397766 194.687897,485.444946 198.116837,486.227112 
	C204.377838,487.655304 210.720718,488.814331 217.085632,489.665283 
	C221.237595,490.220337 223.083908,491.910065 222.031525,496.567322 
	C214.979050,497.000000 207.958099,497.000000 200.468567,497.000000 
z"/>
<path fill="#000000" opacity="1.000000" stroke="none" 
	d="
M497.000000,221.531433 
	C495.290070,220.957901 493.422577,221.760681 491.278381,221.557449 
	C488.830383,216.499420 489.425201,210.660507 487.869507,205.313950 
	C487.086029,202.621277 487.014740,199.711349 486.143219,197.056656 
	C484.812683,193.003906 486.851685,191.755402 490.249512,190.916382 
	C494.063477,189.974609 494.812592,192.244415 495.360565,195.120651 
	C495.637024,196.571671 496.202850,197.967545 496.818909,199.694183 
	C497.000000,207.020950 497.000000,214.041901 497.000000,221.531433 
z"/>
<path fill="#000000" opacity="1.000000" stroke="none" 
	d="
M497.000000,281.531342 
	C490.167816,279.879547 490.446472,279.910889 491.261780,272.659973 
	C491.928589,266.729828 491.772644,260.710358 492.091187,254.736359 
	C492.226990,252.189972 492.470764,249.512863 496.592346,249.941086 
	C497.000000,260.354218 497.000000,270.708466 497.000000,281.531342 
z"/>
<path fill="#000000" opacity="1.000000" stroke="none" 
	d="
M251.468658,497.000000 
	C249.994949,493.183990 251.896606,491.963104 255.381485,491.839172 
	C262.446747,491.587891 269.538391,492.004028 276.569794,490.792938 
	C280.792053,490.065674 281.714386,492.576385 281.110535,496.570251 
	C271.312439,497.000000 261.624878,497.000000 251.468658,497.000000 
z"/>
<path fill="#000000" opacity="1.000000" stroke="none" 
	d="
M275.296448,266.062347 
	C277.789825,286.289032 280.286987,306.075562 282.731049,325.868622 
	C283.647247,333.288361 284.491760,340.701324 285.789551,348.083984 
	C286.913177,354.476074 289.683289,359.652008 293.982452,364.271088 
	C296.364746,366.830719 298.669495,369.469452 300.891296,372.169586 
	C303.159760,374.926422 305.178223,377.465088 309.508789,375.525421 
	C311.808655,374.495300 314.025665,376.247009 315.637146,378.023041 
	C321.010071,383.944580 326.321716,389.922089 331.618866,395.911743 
	C333.036194,397.514343 333.982452,399.412354 332.144897,401.226471 
	C330.100159,403.245117 328.246124,402.037811 326.496124,400.470093 
	C321.618317,396.100616 321.603973,396.117950 316.609375,400.865448 
	C305.500031,411.425171 294.415466,422.011230 283.246643,432.507660 
	C281.920715,433.753815 280.133240,434.508850 278.660645,435.428528 
	C282.759369,441.897278 286.673615,444.993011 293.274261,444.840881 
	C308.430542,444.491547 323.602478,444.600403 338.763702,444.822174 
	C343.378448,444.889679 345.199554,443.306091 344.745728,438.730682 
	C344.500244,436.255768 344.484070,433.711060 344.756042,431.240936 
	C345.515289,424.345490 344.039825,418.379730 338.355011,413.889862 
	C337.717957,413.386627 337.259827,412.637207 336.779694,411.958832 
	C335.607819,410.303131 335.174988,408.551849 336.886871,407.042084 
	C338.561066,405.565582 340.460602,405.973846 341.840393,407.397522 
	C346.923615,412.642487 352.398193,417.563263 351.459045,426.142120 
	C350.864136,431.576630 351.425354,437.130096 351.312195,442.627045 
	C351.196167,448.263153 348.237823,451.324097 342.656128,451.347809 
	C324.659210,451.424286 306.661621,451.329468 288.664612,451.393921 
	C284.268250,451.409668 280.990051,449.310272 278.207703,446.319733 
	C273.441956,441.197388 268.796021,435.960968 264.189850,430.693665 
	C260.666504,426.664612 259.219574,422.327850 263.205414,417.723419 
	C264.869293,415.801361 263.731354,414.361359 262.688354,412.842651 
	C258.925293,407.363403 255.147064,401.894562 251.151810,396.098602 
	C246.686111,402.632660 242.240021,409.138031 237.851151,415.559692 
	C242.863037,423.658875 242.610764,425.603333 236.164001,432.737000 
	C232.479843,436.813690 228.945282,441.025482 225.339172,445.172821 
	C221.772064,449.275299 217.511887,451.601898 211.828720,451.446808 
	C203.336395,451.215057 194.832428,451.445007 186.334503,451.363495 
	C183.837204,451.339539 180.185135,452.172760 180.412033,448.092194 
	C180.610809,444.517670 184.023987,444.786682 186.668869,444.766907 
	C194.500641,444.708405 202.333008,444.734528 210.165131,444.716766 
	C212.161911,444.712250 214.117111,444.686066 215.988098,443.681702 
	C222.800903,440.024506 223.333221,436.860565 217.930710,431.613586 
	C216.975998,430.686340 216.008347,429.754272 215.183685,428.715637 
	C214.019348,427.249237 213.818130,425.660461 215.248886,424.221649 
	C216.650818,422.811798 218.247910,422.873444 219.759369,424.007538 
	C220.954239,424.904053 222.045013,425.942902 223.155182,426.948181 
	C228.237747,431.550598 228.527084,431.442780 232.621307,426.096344 
	C234.154633,424.094116 234.191895,422.768799 232.355469,421.016083 
	C219.820923,409.053009 207.326508,397.047577 194.874695,384.998413 
	C191.484650,381.717957 190.022125,384.994781 188.064697,386.764465 
	C186.024612,388.608948 184.703629,390.255707 187.505508,392.832947 
	C194.493484,399.260651 201.286942,405.901703 208.089172,412.528229 
	C209.924179,414.315857 212.768860,416.301483 209.841599,419.108063 
	C207.108704,421.728271 204.928421,419.204498 203.039246,417.412445 
	C196.633194,411.335632 190.253204,405.228241 183.994537,399.000610 
	C181.317139,396.336426 179.342346,396.116547 176.747559,399.261383 
	C171.874344,405.167664 166.707199,410.837128 161.536331,416.489838 
	C158.558975,419.744598 157.058105,423.347443 157.339050,427.815216 
	C157.600037,431.965637 157.608170,436.140564 157.528519,440.300934 
	C157.467133,443.508179 158.847946,444.863037 162.019287,444.772247 
	C164.510971,444.700897 167.030380,444.709930 169.499084,445.004700 
	C171.478592,445.241089 172.991577,446.501648 172.801483,448.690430 
	C172.625229,450.720001 170.988602,451.323914 169.164368,451.333893 
	C165.498917,451.353943 161.820175,451.522644 158.171082,451.274414 
	C153.916840,450.985016 150.953110,447.643707 150.783569,442.667938 
	C150.556778,436.011078 150.594986,429.335388 150.811646,422.677277 
	C150.921692,419.296051 152.361145,416.286713 154.689606,413.685059 
	C164.910095,402.265381 175.082794,390.802765 185.232071,379.319672 
	C187.844528,376.363861 190.767166,374.339142 194.834427,375.966614 
	C196.809814,376.757050 197.934570,376.037537 199.123825,374.647156 
	C203.346802,369.710083 207.712952,364.892700 211.849533,359.885162 
	C216.105270,354.733368 216.690002,348.231903 217.494934,342.013947 
	C220.759598,316.794800 223.803574,291.546600 226.821259,266.296234 
	C228.336868,253.614426 236.926041,248.298355 249.108902,252.828445 
	C250.667542,253.408020 251.884399,253.291245 253.371918,252.731216 
	C264.970825,248.364441 273.580780,253.463043 275.296448,266.062347 
M294.773926,387.299896 
	C300.840912,381.275024 301.031891,382.535095 295.269318,376.630829 
	C285.598022,366.721710 279.035828,355.744019 277.228088,341.497620 
	C275.246368,325.879974 271.482452,310.480347 268.285217,295.029175 
	C267.076538,289.188080 263.985352,286.581329 259.667786,287.220093 
	C254.176849,288.032440 254.377625,292.333191 254.378662,296.408386 
	C254.385361,322.540131 254.682083,348.676025 254.298126,374.801971 
	C254.085205,389.290527 261.532959,399.830383 270.169434,410.683502 
	C278.407684,402.855865 286.339355,395.319519 294.773926,387.299896 
M215.328979,366.793152 
	C211.736679,370.939209 208.190414,375.126526 204.529922,379.211456 
	C203.017563,380.899200 202.179947,382.268860 204.247269,384.223969 
	C212.707397,392.224762 221.074432,400.323975 229.484879,408.377380 
	C230.798584,409.635376 232.354202,410.544128 233.737274,408.700195 
	C240.129776,400.177734 247.375610,391.761932 247.515259,380.494690 
	C247.874069,351.545471 247.653473,322.588989 247.648636,293.635406 
	C247.648148,290.744110 246.654007,288.268127 243.668274,287.420868 
	C240.699127,286.578339 238.103699,287.580963 236.057022,289.931000 
	C234.447342,291.779205 233.973343,294.115967 233.539948,296.368378 
	C230.683655,311.212616 228.145187,326.121063 225.079391,340.920807 
	C223.247314,349.764893 222.839142,359.262299 215.328979,366.793152 
M307.059570,385.577057 
	C294.872375,397.166748 282.751740,408.827789 270.459290,420.304718 
	C266.519470,423.983185 269.752777,425.934967 271.701019,428.516479 
	C273.713959,431.183746 275.421539,430.506561 277.416260,428.581482 
	C289.757843,416.670776 302.089417,404.748962 314.531708,392.944092 
	C316.845856,390.748505 316.557800,389.077820 314.500336,387.141663 
	C312.527039,385.284668 311.206482,381.284943 307.059570,385.577057 
M261.274750,258.107452 
	C258.253815,257.763672 255.651947,258.811981 255.036911,261.801666 
	C253.775314,267.934448 254.200211,274.137543 254.901550,280.862793 
	C260.281311,278.837463 264.601807,280.912476 269.344513,282.302765 
	C270.412628,276.092377 268.744751,270.491760 267.901703,264.837341 
	C267.386078,261.378967 265.607605,259.012878 261.274750,258.107452 
M243.098953,258.184143 
	C239.317734,257.628601 236.314743,259.072205 235.047821,262.558411 
	C232.778809,268.802094 232.981888,275.414307 232.404892,282.548767 
	C237.622849,280.682251 242.103271,278.967346 247.553619,280.734131 
	C247.553619,274.192566 247.668381,268.429321 247.493820,262.674835 
	C247.429276,260.546875 245.919464,259.091339 243.098953,258.184143 
z"/>
<path fill="#000000" opacity="1.000000" stroke="none" 
	d="
M194.587952,135.809921 
	C203.025833,137.272003 210.524780,139.807373 216.813309,145.183792 
	C218.619751,146.728210 220.224319,148.379913 220.539032,150.893158 
	C220.781815,152.831818 220.386032,154.557236 218.809753,155.831497 
	C217.131180,157.188431 215.331604,156.835663 213.672668,155.866943 
	C212.095352,154.945892 210.616241,153.844971 209.148224,152.750336 
	C200.099472,146.003098 189.795898,144.849228 179.155411,146.730362 
	C167.899902,148.720230 160.920776,156.054855 157.615021,166.715393 
	C154.345459,177.259201 154.198196,188.079254 156.855347,198.765640 
	C160.780365,214.551102 171.977554,222.679474 188.907883,222.220505 
	C194.881821,222.058563 200.852402,221.635834 206.691620,219.950363 
	C209.623840,219.104004 210.759033,217.656219 210.691193,214.656143 
	C210.548080,208.326141 210.535919,201.987946 210.692123,195.658600 
	C210.771896,192.425980 209.553696,191.133835 206.314514,191.242905 
	C201.819931,191.394302 197.315109,191.326218 192.816544,191.246033 
	C189.337677,191.184036 186.195602,190.115601 186.375717,185.988571 
	C186.548752,182.023636 189.741989,181.627899 192.980179,181.650955 
	C200.313019,181.703140 207.647476,181.741837 214.979309,181.641876 
	C219.375031,181.581955 221.397583,183.524673 221.365784,187.949310 
	C221.287964,198.781876 221.327988,209.615372 221.337402,220.448486 
	C221.340088,223.539017 220.359268,226.137939 217.290878,227.253845 
	C200.362823,233.410141 183.203995,235.538071 166.266846,227.858887 
	C150.187744,220.568741 144.319305,206.298889 142.827164,189.876266 
	C141.917450,179.863907 142.803238,169.896561 146.942352,160.494370 
	C154.063141,144.319183 166.751312,136.440445 184.136826,135.680450 
	C187.461578,135.535126 190.800919,135.723785 194.587952,135.809921 
z"/>
<path fill="#000000" opacity="1.000000" stroke="none" 
	d="
M306.002899,188.322891 
	C301.340485,188.324448 297.172394,188.452179 293.015839,188.287949 
	C289.535614,188.150421 288.323212,189.638779 288.359558,193.033798 
	C288.475525,203.856491 288.373627,214.681351 288.398956,225.505280 
	C288.408203,229.453339 286.737305,232.069321 282.623199,232.093643 
	C278.725891,232.116684 277.210236,229.352142 276.806885,225.864807 
	C276.673584,224.712402 276.729004,223.536316 276.726440,222.371002 
	C276.717255,218.207886 276.719147,214.044754 276.718903,209.881622 
	C276.717773,188.399902 276.697449,166.918167 276.727692,145.436493 
	C276.737762,138.278961 278.387146,136.675690 285.583984,136.664536 
	C300.071625,136.642075 314.559326,136.652695 329.046997,136.657745 
	C330.211609,136.658142 331.385132,136.641022 332.539062,136.770187 
	C335.282806,137.077377 336.752380,138.890488 336.935181,141.420853 
	C337.124847,144.046082 335.660858,145.781006 332.993317,146.387222 
	C329.538300,147.172440 326.032532,146.939667 322.542114,146.948715 
	C313.383331,146.972427 304.224396,146.934769 295.065552,146.953888 
	C288.642090,146.967285 288.444946,147.180161 288.422424,153.786880 
	C288.401428,159.948212 288.639984,166.121017 288.332306,172.267151 
	C288.117645,176.555054 289.382019,178.151657 293.909546,178.010574 
	C304.057709,177.694351 314.222504,177.907562 324.380524,177.920349 
	C325.877625,177.922226 327.390442,177.885376 328.868347,178.078339 
	C331.956970,178.481598 334.415833,179.759323 334.221436,183.392242 
	C334.033478,186.904785 331.720917,188.267212 328.483276,188.287140 
	C321.156433,188.332245 313.829254,188.314682 306.002899,188.322891 
z"/>
<path fill="#000000" opacity="1.000000" stroke="none" 
	d="
M251.269577,231.427765 
	C245.332565,232.496719 242.737198,230.728867 242.719971,225.436050 
	C242.630096,197.826736 242.681152,170.216980 242.664871,142.607376 
	C242.662552,138.683014 244.393112,135.961853 248.407761,135.919327 
	C252.730377,135.873520 254.361725,138.737885 254.356201,142.875519 
	C254.319565,170.318802 254.330933,197.762192 254.357300,225.205505 
	C254.359665,227.672775 253.885513,229.829010 251.269577,231.427765 
z"/>
<path fill="#000000" opacity="1.000000" stroke="none" 
	d="
M109.088379,445.879028 
	C111.960083,447.989288 115.467880,449.278778 112.201752,453.685364 
	C110.070137,456.561371 108.559578,457.210876 105.470940,454.959747 
	C99.442657,450.566101 93.551086,446.025940 87.845436,441.223969 
	C85.527206,439.272858 84.748001,437.612000 87.281189,435.166931 
	C89.380203,433.140961 90.848808,430.896088 94.120232,433.811798 
	C98.811264,437.992737 103.889191,441.739563 109.088379,445.879028 
z"/>
<path fill="#000000" opacity="1.000000" stroke="none" 
	d="
M442.034668,103.941635 
	C438.999847,100.168907 436.287628,96.585754 433.328125,93.220078 
	C430.849182,90.400940 432.624176,88.858322 434.647797,87.123543 
	C436.598389,85.451340 438.228516,84.408066 440.452423,87.003761 
	C445.648926,93.068893 450.504303,99.378380 455.194458,105.838234 
	C457.446259,108.939713 455.517303,110.135017 453.351562,111.705589 
	C451.009399,113.404175 449.103943,114.161674 447.216919,111.085037 
	C445.745300,108.685677 443.918915,106.503899 442.034668,103.941635 
z"/>
<path fill="#000000" opacity="1.000000" stroke="none" 
	d="
M338.922852,26.328381 
	C334.272125,23.792383 337.517181,20.987362 338.368195,18.527260 
	C339.259094,15.951883 341.364349,17.127621 342.986023,17.843916 
	C349.986053,20.935825 356.925751,24.165218 363.942719,27.217371 
	C367.084503,28.583954 367.146759,30.376463 365.582855,33.093864 
	C364.172974,35.543594 363.392883,37.718975 359.675720,35.807972 
	C353.027252,32.389969 346.085205,29.542904 338.922852,26.328381 
z"/>
<path fill="#000000" opacity="1.000000" stroke="none" 
	d="
M85.665985,64.350479 
	C91.548592,70.082458 91.450317,69.978439 85.704788,75.407028 
	C81.248505,79.617485 76.942284,84.007668 72.832840,88.556030 
	C70.572304,91.058006 68.911217,90.851814 66.673950,88.681786 
	C64.583931,86.654556 62.904907,85.031181 65.776779,82.223770 
	C72.121803,76.021156 77.206589,68.465477 85.665985,64.350479 
z"/>
<path fill="#000000" opacity="1.000000" stroke="none" 
	d="
M472.278076,368.635620 
	C468.351166,376.326080 463.920929,383.328125 459.483765,390.333618 
	C457.747528,393.074829 456.110809,393.405487 453.479675,391.534637 
	C451.073975,389.824127 449.345062,388.487000 451.498260,385.224915 
	C455.331818,379.416992 458.852051,373.400696 462.449249,367.438904 
	C465.471008,362.430817 469.130310,362.729980 472.278076,368.635620 
z"/>
<path fill="#000000" opacity="1.000000" stroke="none" 
	d="
M40.702499,114.760193 
	C42.811306,112.822243 42.706295,108.453583 46.838913,109.849571 
	C51.858372,111.545143 52.426216,113.748062 49.582764,118.264305 
	C46.124096,123.757683 42.762321,129.318985 39.570583,134.970627 
	C37.930172,137.875305 36.730179,139.960480 32.761902,137.648376 
	C29.101049,135.515381 29.245144,133.537170 31.207117,130.457779 
	C34.427639,125.403069 37.417927,120.201668 40.702499,114.760193 
z"/>
<path fill="#000000" opacity="1.000000" stroke="none" 
	d="
M118.967834,49.046333 
	C115.819504,51.381821 113.218727,53.870869 110.345444,48.914597 
	C108.599876,45.903584 108.820488,44.278419 111.793907,42.564816 
	C118.248779,38.844841 124.631363,34.994942 130.966492,31.073732 
	C133.744385,29.354317 135.381256,29.984859 136.844055,32.815170 
	C138.223694,35.484562 138.938644,37.504120 135.573273,39.327465 
	C130.043320,42.323589 124.691498,45.648453 118.967834,49.046333 
z"/>
<path fill="#000000" opacity="1.000000" stroke="none" 
	d="
M393.728149,45.287720 
	C401.450287,49.963627 407.872620,55.767330 414.573608,61.217762 
	C417.299591,63.434982 415.977844,65.091919 414.269958,66.967247 
	C412.672852,68.720894 411.425140,70.712944 408.612732,68.426323 
	C402.425629,63.395992 396.028534,58.624695 389.809174,53.632984 
	C387.009796,51.386189 388.277191,48.511341 393.728149,45.287720 
z"/>
<path fill="#000000" opacity="1.000000" stroke="none" 
	d="
M473.809631,136.449280 
	C477.604156,143.499786 480.591156,150.525421 483.503174,157.596436 
	C484.817810,160.788712 484.682770,162.712234 481.039032,164.132156 
	C477.533539,165.498215 476.136353,164.562729 474.808685,161.194839 
	C472.254761,154.716537 469.132080,148.463547 466.294678,142.095139 
	C465.540497,140.402405 463.622620,138.340973 466.370941,137.000763 
	C468.549713,135.938293 470.785492,132.537262 473.809631,136.449280 
z"/>
<path fill="#000000" opacity="1.000000" stroke="none" 
	d="
M374.199158,469.229919 
	C367.243866,473.303284 366.713654,473.148254 364.463318,467.915771 
	C363.436737,465.528778 364.076904,464.290375 366.151733,463.056793 
	C372.589417,459.229279 379.031372,455.395905 385.298584,451.299927 
	C388.662750,449.101227 389.924927,451.134247 391.590546,453.450989 
	C393.279480,455.800171 393.402740,457.512299 390.687927,459.132324 
	C385.257233,462.373108 379.905823,465.746674 374.199158,469.229919 
z"/>
<path fill="#000000" opacity="1.000000" stroke="none" 
	d="
M36.729359,363.710083 
	C29.866226,368.624359 29.463226,368.600159 26.131088,361.519745 
	C23.241306,355.379303 20.616264,349.114197 17.877728,342.902649 
	C16.882778,340.645874 17.332418,338.950531 19.931679,338.447357 
	C22.053541,338.036652 24.586998,335.088837 26.268017,338.821625 
	C29.930288,346.953888 33.374180,355.184479 36.729359,363.710083 
z"/>
<path fill="#000000" opacity="1.000000" stroke="none" 
	d="
M299.392273,14.731020 
	C293.913849,13.808288 288.861481,12.886701 283.773804,12.245414 
	C280.316559,11.809645 279.527161,9.909616 279.664612,6.769105 
	C279.808960,3.471891 281.403992,2.206454 284.425293,2.715611 
	C292.421631,4.063174 300.405579,5.490603 308.374115,6.993830 
	C311.233185,7.533180 310.798462,9.750751 310.241302,11.705881 
	C309.635864,13.830340 309.548706,16.670418 306.125153,16.165834 
	C303.999481,15.852536 301.909363,15.297886 299.392273,14.731020 
z"/>
<path fill="#000000" opacity="1.000000" stroke="none" 
	d="
M325.691589,480.619263 
	C328.120605,479.816315 330.269836,479.312958 332.182831,478.343536 
	C335.930389,476.444397 337.798492,477.579346 339.220551,481.422821 
	C340.774048,485.621338 338.097931,486.273315 335.331177,487.208649 
	C328.402374,489.551056 321.487091,491.885345 314.326019,493.514465 
	C310.142212,494.466248 310.212128,491.755829 309.355530,489.224487 
	C308.315948,486.152283 309.495667,485.080048 312.356903,484.405579 
	C316.720978,483.376770 320.993591,481.960175 325.691589,480.619263 
z"/>
<path fill="#000000" opacity="1.000000" stroke="none" 
	d="
M61.309032,414.668457 
	C56.001938,408.450806 51.060429,402.403046 46.654774,395.921173 
	C44.926514,393.378418 45.994637,392.009888 48.116356,390.706909 
	C50.065063,389.510193 51.902275,387.574158 54.076107,390.408142 
	C59.425014,397.381439 64.808273,404.328400 70.575890,411.801910 
	C67.263199,412.823456 66.845016,419.767242 61.309032,414.668457 
z"/>
<path fill="#000000" opacity="1.000000" stroke="none" 
	d="
M162.921829,475.699158 
	C167.992569,479.118347 163.367554,481.747223 162.839798,485.375183 
	C153.459152,481.916473 144.588348,478.409058 136.288773,473.642120 
	C133.343292,471.950378 135.990204,469.919739 136.707779,468.111420 
	C137.665329,465.698395 139.095367,464.850952 141.736664,466.101959 
	C148.634674,469.368988 155.630692,472.429016 162.921829,475.699158 
z"/>
<path fill="#000000" opacity="1.000000" stroke="none" 
	d="
M477.357361,336.642365 
	C479.631378,328.056763 482.159515,319.831024 484.485840,311.548553 
	C485.525909,307.845490 487.823853,308.885071 490.347748,309.374908 
	C493.249176,309.938110 494.369354,311.160645 493.411469,314.161743 
	C490.993195,321.738007 489.098602,329.507568 486.242859,336.909821 
	C483.917023,342.938568 480.476898,337.802704 477.357361,336.642365 
z"/>
<path fill="#000000" opacity="1.000000" stroke="none" 
	d="
M19.372330,162.893280 
	C24.592699,164.026413 25.481379,166.365494 23.509630,171.123505 
	C20.987209,177.210342 19.239475,183.665283 17.686638,190.089401 
	C16.743401,193.991592 14.566353,193.591263 11.778795,193.004608 
	C8.740115,192.365097 7.592234,190.896881 8.622789,187.723709 
	C10.973737,180.484909 13.116084,173.178604 15.398778,165.917191 
	C15.941380,164.191162 16.451180,162.239456 19.372330,162.893280 
z"/>
<path fill="#000000" opacity="1.000000" stroke="none" 
	d="
M411.738342,431.350281 
	C417.766052,425.026367 424.206818,419.521576 429.614838,413.000702 
	C431.854309,410.300354 433.629395,411.967224 435.435242,413.575928 
	C437.225800,415.170990 439.163635,416.693604 436.619354,419.223145 
	C430.864594,424.944519 425.237701,430.799530 419.350830,436.380798 
	C416.552795,439.033569 414.241821,437.519196 411.738342,431.350281 
z"/>
<path fill="#000000" opacity="1.000000" stroke="none" 
	d="
M190.228775,17.401171 
	C182.725159,19.746168 175.543152,21.806126 168.544632,24.367485 
	C164.849808,25.719738 163.949707,23.907667 162.880203,21.108156 
	C161.795059,18.267748 161.994919,16.581596 165.250717,15.481675 
	C173.549210,12.678166 181.773178,9.665541 190.964752,8.039326 
	C191.028198,11.370994 195.814285,14.276134 190.228775,17.401171 
z"/>
<path fill="#000000" opacity="1.000000" stroke="none" 
	d="
M15.583246,303.603973 
	C17.110680,307.798218 16.007883,309.767090 11.870186,310.775665 
	C7.299780,311.889740 7.272106,308.807800 6.723662,306.125793 
	C5.393270,299.619843 4.319533,293.060089 2.918279,286.570374 
	C1.986448,282.254791 3.720559,280.623016 7.862127,280.110443 
	C12.112208,279.584503 11.867039,282.449646 12.309739,285.045197 
	C13.341931,291.096924 14.412984,297.141998 15.583246,303.603973 
z"/>
</svg>